<svg xmlns="http://www.w3.org/2000/svg" width="259" height="455" fill="none" viewBox="0 0 259 455">
  <g class="base-girl">
    <g class="Puritan Girlie" filter="url(#a)">
      <path fill="#E8B2AB" d="M130.941 1.416c31.494 0 57.779 17.29 63.937 40.297 11.597.117 20.955 7.873 20.955 17.422 0 9.624-9.503 17.425-21.224 17.425-2.087 0-4.104-.25-6.009-.71-8.208 11.936-22.398 21.023-39.467 24.855v19.076h37.893c5.988 0 10.986 3.206 13.733 7.79l.378-.177.002.004a.097.097 0 0 0 .005.011l.015.033.052.113.19.406c.163.35.398.86.703 1.523a727.706 727.706 0 0 1 2.619 5.789 1120.004 1120.004 0 0 1 9.406 21.699c7.729 18.329 18.206 44.348 29.428 75.58 7.29 4.219 12.458 11.717 13.238 20.632 1.285 14.68-9.809 27.643-24.778 28.955-14.97 1.312-28.147-9.525-29.432-24.205a26.16 26.16 0 0 1 1.206-10.477 1505.386 1505.386 0 0 0-19.483-51.335l-2.874 34.204c-.033.386-.028.773.014 1.158l5.405 49.14 1.156.43 9.887 119.795h3.137c18.044.001 32.671 14.628 32.671 32.672v14.157a5.445 5.445 0 0 1-5.444 5.446h-89.685v-52.275h.997l-1.873-133.867a8.55 8.55 0 0 0-16.883 1.604l-.485 14.397a5.969 5.969 0 0 1-.258 1.546v116.32h1.088v52.275H31.477a5.446 5.446 0 0 1-5.445-5.446v-14.157c0-18.044 14.628-32.672 32.672-32.672h3.137l9.889-119.795.931-.401 3.182-49.101c.028-.43.01-.861-.055-1.286l-4.352-28.768a862.384 862.384 0 0 0-17.51 44.34 26.147 26.147 0 0 1 1.801 12.096c-1.284 14.68-14.46 25.517-29.43 24.205-14.97-1.311-26.064-14.275-24.78-28.955.725-8.277 5.23-15.333 11.706-19.677 11.358-31.533 22.836-57.826 31.547-76.368 4.433-9.434 8.158-16.879 10.796-22.005a457.357 457.357 0 0 1 1.61-3.106c1.668-6.881 7.853-12.247 15.564-12.247h40.393v-18.99c-16.91-3.709-31.03-12.568-39.368-24.254-.349.014-.7.023-1.052.023-11.72 0-21.222-7.801-21.223-17.425 0-7.946 6.48-14.65 15.338-16.745C72.646 19.046 99.14 1.416 130.941 1.416Z" class="base skin"/>
      <path stroke="#EA968B" stroke-linecap="round" stroke-width="6.534" d="m71.517 61.364-8.056-4.653" class="left ear line"/>
      <path stroke="#EA968B" stroke-linecap="round" stroke-width="6.534" d="m195.152 61.364 8.056-4.653" class="right ear line"/>
    </g>
    <g class="undies" filter="url(#b)">
      <path fill="#F6F0E5" d="M177.647 230.781a8 8 0 0 1 7.927 6.922l7.119 52.346a3 3 0 0 1-2.817 3.4l-49.949 2.584a5.001 5.001 0 0 1-5.237-4.532l-.74-7.99c-.452-4.876-7.588-4.825-7.971.057l-.609 7.776a5 5 0 0 1-5.326 4.598l-50.306-3.448a3 3 0 0 1-2.778-3.309l5.416-51.245a8 8 0 0 1 7.956-7.159h97.315Zm-73.401-71.407a83.008 83.008 0 0 0 50.761-.199l6.127-40.894h14v15.86c0 14.634 12.505 28.749 11.669 43.359l-2.162 37.781-54.983-10.934-57.024 7.434-1.853-34.635c-.836-15.644 13.853-30.733 13.853-46.399v-12.466h14l5.612 41.093Z"/>
    </g>
  </g>
  <defs>
    <filter id="a" width="258.312" height="454.54" x="0" y="0" class="a" color-interpolation-filters="sRGB" filterUnits="userSpaceOnUse">
      <feFlood flood-opacity="0" result="BackgroundImageFix"/>
      <feBlend in="SourceGraphic" in2="BackgroundImageFix" result="shape"/>
      <feTurbulence baseFrequency="0.38100969791412354 0.38100969791412354" numOctaves="3" seed="4240" type="fractalNoise"/>
      <feDisplacementMap width="100%" height="100%" in="shape" result="displacedImage" scale="2.832" xChannelSelector="R" yChannelSelector="G"/>
      <feMerge result="effect1_texture_472_908">
        <feMergeNode in="displacedImage"/>
      </feMerge>
    </filter>
    <filter id="b" width="128.609" height="180.59" x="65.528" y="116.865" class="b" color-interpolation-filters="sRGB" filterUnits="userSpaceOnUse">
      <feFlood flood-opacity="0" result="BackgroundImageFix"/>
      <feBlend in="SourceGraphic" in2="BackgroundImageFix" result="shape"/>
      <feTurbulence baseFrequency="0.38100969791412354 0.38100969791412354" numOctaves="3" seed="4240" type="fractalNoise"/>
      <feDisplacementMap width="100%" height="100%" in="shape" result="displacedImage" scale="2.832" xChannelSelector="R" yChannelSelector="G"/>
      <feMerge result="effect1_texture_472_908">
        <feMergeNode in="displacedImage"/>
      </feMerge>
    </filter>
  </defs>
</svg>
