<svg width="218" height="137" viewBox="0 0 218 137" fill="none" xmlns="http://www.w3.org/2000/svg">
<g filter="url(#filter0_g_488_1252)">
<path d="M97.9375 43.5676C99.7419 43.5676 101.205 45.0308 101.205 46.8352V83.0344H101.492V135.308H6.74512C3.73779 135.308 1.2998 132.87 1.2998 129.863V115.705C1.29983 97.6614 15.9278 83.0344 33.9717 83.0344H36.0088L40.5078 46.4368C40.7092 44.7989 42.0998 43.5677 43.75 43.5676H97.9375Z" fill="#1A1A1A"/>
<path d="M173.66 43.5676C175.31 43.5677 176.701 44.7989 176.902 46.4368L181.401 83.0344H183.438C201.482 83.0344 216.11 97.6614 216.11 115.705V129.863C216.11 132.87 213.672 135.308 210.665 135.308H115.918V83.0344H116.205V46.8352C116.205 45.0308 117.668 43.5676 119.473 43.5676H173.66Z" fill="#1A1A1A"/>
<path d="M55.3877 14.2151C55.3877 14.2151 62.6906 11.518 70.3877 7.71509" stroke="#E09F97" stroke-width="6.53429" stroke-linecap="round"/>
<path d="M58.7324 4.56714C58.7324 4.56714 63.8877 9.71509 66.3877 17.9122" stroke="#E09F97" stroke-width="6.53429" stroke-linecap="round"/>
<path d="M148.468 21.0461C148.468 21.0461 151.229 13.7672 153.415 5.46484" stroke="#E09F97" stroke-width="6.53429" stroke-linecap="round"/>
<path d="M143.388 12.1887C143.388 12.1887 150.655 11.6808 158.479 15.1778" stroke="#E09F97" stroke-width="6.53429" stroke-linecap="round"/>
</g>
<defs>
<filter id="filter0_g_488_1252" x="-0.000195265" y="4.88758e-05" width="217.411" height="136.608" filterUnits="userSpaceOnUse" color-interpolation-filters="sRGB">
<feFlood flood-opacity="0" result="BackgroundImageFix"/>
<feBlend mode="normal" in="SourceGraphic" in2="BackgroundImageFix" result="shape"/>
<feTurbulence type="fractalNoise" baseFrequency="0.41493773460388184 0.41493773460388184" numOctaves="3" seed="4240" />
<feDisplacementMap in="shape" scale="2.5999999046325684" xChannelSelector="R" yChannelSelector="G" result="displacedImage" width="100%" height="100%" />
<feMerge result="effect1_texture_488_1252">
<feMergeNode in="displacedImage"/>
</feMerge>
</filter>
</defs>
</svg>
