<svg xmlns="http://www.w3.org/2000/svg" viewBox="0 0 216 104" fill="none">
  <g class="boots">
    <!-- Left simple boot -->
    <path d="M45 25 L45 75 L45 80 Q45 90 55 90 L75 90 Q80 90 80 85 L80 80 L80 25 Q80 20 75 20 L50 20 Q45 20 45 25 Z" fill="#1A1A1A" stroke="#1A1A1A" stroke-width="1.5"/>
    <ellipse cx="62.5" cy="20" rx="17.5" ry="5" fill="#1A1A1A"/>
    <rect x="45" y="75" width="35" height="5" fill="#333"/>

    <!-- Right simple boot -->
    <path d="M136 25 L136 75 L136 80 Q136 90 146 90 L166 90 Q171 90 171 85 L171 80 L171 25 Q171 20 166 20 L141 20 Q136 20 136 25 Z" fill="#1A1A1A" stroke="#1A1A1A" stroke-width="1.5"/>
    <ellipse cx="153.5" cy="20" rx="17.5" ry="5" fill="#1A1A1A"/>
    <rect x="136" y="75" width="35" height="5" fill="#333"/>
  </g>
</svg>
