<svg width="219" height="123" viewBox="0 0 219 123" fill="none" xmlns="http://www.w3.org/2000/svg">
<g filter="url(#filter0_g_488_1300)">
<path d="M91.2969 1.30005C99.5811 1.30005 106.297 5.7772 106.297 11.3C106.297 14.2189 104.421 16.845 101.429 18.6731V75.8206H35.04L42.3242 19.3147C38.6653 17.4911 36.2969 14.5799 36.2969 11.3C36.2969 5.7772 43.0126 1.30005 51.2969 1.30005C55.139 1.30005 58.643 2.26419 61.2969 3.8479C63.9507 2.26419 67.4548 1.30005 71.2969 1.30005C75.139 1.30005 78.643 2.26419 81.2969 3.8479C83.9507 2.26419 87.4548 1.30005 91.2969 1.30005Z" fill="#F6F0E5"/>
<path d="M168.297 1.30005C176.581 1.30005 183.297 5.7772 183.297 11.3C183.297 14.94 180.379 18.1241 176.019 19.8733L183.232 75.8206H116.844V17.7551C114.632 16.013 113.297 13.7612 113.297 11.3C113.297 5.7772 120.013 1.30005 128.297 1.30005C132.139 1.30005 135.643 2.26419 138.297 3.8479C140.951 2.26419 144.455 1.30005 148.297 1.30005C152.139 1.30005 155.643 2.26419 158.297 3.8479C160.951 2.26419 164.455 1.30005 168.297 1.30005Z" fill="#F6F0E5"/>
<path d="M101.429 69.2869H33.9712C15.9272 69.2869 1.29968 83.9144 1.29968 101.958V116.116C1.29968 119.123 3.7376 121.561 6.74493 121.561H101.429V69.2869Z" fill="#1A1A1A"/>
<path d="M116.843 69.2869H184.3C202.344 69.2869 216.972 83.9144 216.972 101.958V116.116C216.972 119.123 214.534 121.561 211.527 121.561H116.843V69.2869Z" fill="#1A1A1A"/>
</g>
<defs>
<filter id="filter0_g_488_1300" x="-0.000195265" y="4.88758e-05" width="218.272" height="122.861" filterUnits="userSpaceOnUse" color-interpolation-filters="sRGB">
<feFlood flood-opacity="0" result="BackgroundImageFix"/>
<feBlend mode="normal" in="SourceGraphic" in2="BackgroundImageFix" result="shape"/>
<feTurbulence type="fractalNoise" baseFrequency="0.41493773460388184 0.41493773460388184" numOctaves="3" seed="4240" />
<feDisplacementMap in="shape" scale="2.5999999046325684" xChannelSelector="R" yChannelSelector="G" result="displacedImage" width="100%" height="100%" />
<feMerge result="effect1_texture_488_1300">
<feMergeNode in="displacedImage"/>
</feMerge>
</filter>
</defs>
</svg>
