<svg xmlns="http://www.w3.org/2000/svg" viewBox="0 0 216 152" fill="none">
  <g class="boots">
    <!-- Left tall boot -->
    <path d="M45 10 L45 110 L45 115 Q45 125 55 125 L75 125 Q80 125 80 120 L80 115 L80 10 Q80 5 75 5 L50 5 Q45 5 45 10 Z" fill="#1A1A1A" stroke="#1A1A1A" stroke-width="1.5"/>
    <ellipse cx="62.5" cy="5" rx="17.5" ry="5" fill="#1A1A1A"/>
    <path d="M48 30 Q62.5 35 77 30" stroke="#666" stroke-width="1.5" fill="none"/>
    <path d="M48 50 Q62.5 55 77 50" stroke="#666" stroke-width="1.5" fill="none"/>
    <path d="M48 70 Q62.5 75 77 70" stroke="#666" stroke-width="1.5" fill="none"/>

    <!-- Right tall boot -->
    <path d="M136 10 L136 110 L136 115 Q136 125 146 125 L166 125 Q171 125 171 120 L171 115 L171 10 Q171 5 166 5 L141 5 Q136 5 136 10 Z" fill="#1A1A1A" stroke="#1A1A1A" stroke-width="1.5"/>
    <ellipse cx="153.5" cy="5" rx="17.5" ry="5" fill="#1A1A1A"/>
    <path d="M139 30 Q153.5 35 168 30" stroke="#666" stroke-width="1.5" fill="none"/>
    <path d="M139 50 Q153.5 55 168 50" stroke="#666" stroke-width="1.5" fill="none"/>
    <path d="M139 70 Q153.5 75 168 70" stroke="#666" stroke-width="1.5" fill="none"/>
  </g>
</svg>
