<svg width="256" height="283" viewBox="0 0 256 283" fill="none" xmlns="http://www.w3.org/2000/svg">
<g filter="url(#filter0_g_494_169)">
<path d="M149.956 19.5858V14.4366C149.956 9.11448 145.641 4.80005 140.319 4.80005C134.997 4.80005 130.683 9.11447 130.683 14.4366V39.5143L76.0275 73.096C74.3086 74.1521 75.0571 76.8 77.0745 76.8H185.539C187.585 76.8 188.311 74.0917 186.54 73.0683L134.537 43.025" stroke="#29460A" stroke-width="7"/>
</g>
<g filter="url(#filter1_g_494_169)">
<path d="M77.0635 77.9591C77.0635 77.9591 57.9386 102.289 35.3849 165.284" stroke="#1A1A1A" stroke-width="42.4729" stroke-linejoin="round"/>
<path d="M60.5513 172.633C61.2156 171.044 60.188 169.258 58.4805 169.033C44.7244 167.225 31.6388 162 20.418 153.834L17.9521 152.04C16.3915 150.904 14.1805 151.522 13.4361 153.303L6.29582 170.382C5.12683 173.178 5.75194 176.404 7.88098 178.561L9.48776 180.189C19.3579 190.192 33.0118 195.528 47.0439 194.866C49.6686 194.742 51.9872 193.118 53.0009 190.693L60.5513 172.633Z" fill="#F6F0E5"/>
<path d="M178.499 77.955C178.499 77.955 197.626 102.291 220.187 165.295" stroke="#1A1A1A" stroke-width="42.4729" stroke-linejoin="round"/>
<path d="M195.025 172.633C194.361 171.044 195.388 169.257 197.096 169.033C210.852 167.225 223.937 161.999 235.158 153.834L237.624 152.039C239.185 150.904 241.396 151.522 242.14 153.303L249.28 170.382C250.449 173.178 249.824 176.403 247.695 178.561L246.088 180.189C236.218 190.192 222.564 195.527 208.532 194.865C205.908 194.742 203.589 193.117 202.575 190.693L195.025 172.633Z" fill="#F6F0E5"/>
<g filter="url(#filter2_g_494_169)">
<path d="M167.672 266.305C167.773 266.841 167.825 267.388 167.825 267.943C167.825 275.043 159.292 280.8 148.767 280.8C140.993 280.8 134.307 277.66 131.342 273.157C128.377 277.66 121.691 280.8 113.918 280.8C103.392 280.8 94.8594 275.043 94.8594 267.943C94.8594 267.388 94.9116 266.841 95.0127 266.305C92.5252 271.454 85.3528 275.175 76.8906 275.175C66.365 275.175 57.832 269.418 57.832 262.318C57.8321 261.438 57.9627 260.58 58.2119 259.75C55.3844 260.87 52.0913 261.514 48.5752 261.514C38.0497 261.514 29.5168 255.758 29.5166 248.657C29.5166 246.723 30.1507 244.888 31.2852 243.242C30.8538 241.261 30.9195 239.137 31.5889 237.05L79.2451 88.4602L175.494 80.3782L230.85 236.67C231.612 238.822 231.721 241.028 231.293 243.088C232.495 244.773 233.169 246.662 233.169 248.657C233.169 255.758 224.636 261.514 214.11 261.514C210.594 261.514 207.3 260.871 204.473 259.75C204.722 260.58 204.853 261.438 204.854 262.318C204.854 269.418 196.321 275.175 185.795 275.175C177.333 275.175 170.159 271.454 167.672 266.305ZM166.422 263.095C166.592 263.377 166.748 263.663 166.889 263.954C166.831 263.649 166.791 263.341 166.766 263.03L166.422 263.095ZM95.8535 263.605C95.8364 263.721 95.8175 263.836 95.7959 263.951C95.8487 263.842 95.904 263.734 95.9609 263.626L95.8535 263.605Z" fill="#1A1A1A"/>
</g>
<path d="M67.6352 204.826L80.7483 143.296H176.413L188.544 205.03C190.131 213.105 183.95 220.619 175.721 220.619H80.4167C72.1027 220.619 65.9023 212.957 67.6352 204.826Z" fill="#F6F0E5"/>
<path d="M113.061 44.8C112.674 45.9152 112.467 47.087 112.467 48.2961C112.467 55.7506 120.301 61.7931 129.966 61.7932C139.63 61.7932 147.466 55.7506 147.466 48.2961C147.466 47.1727 147.286 46.0818 146.95 45.0383L221.945 67.1985C225.149 68.1454 226.084 72.1056 223.509 74.2336C209.88 85.4923 172.982 112.197 129.602 112.197C86.2213 112.197 49.323 85.4923 35.6943 74.2336C33.1186 72.1056 34.0536 68.1454 37.2578 67.1985L113.061 44.8Z" fill="#F6F0E5"/>
<path d="M186.029 133.494C189.93 133.494 193.355 136.087 194.414 139.841L195.644 144.197C197.212 149.756 193.035 155.275 187.259 155.275H74.2355C68.4591 155.275 64.2819 149.756 65.8505 144.197L67.0796 139.841C68.1389 136.087 71.5641 133.494 75.4646 133.494H186.029Z" fill="#F6F0E5"/>
</g>
<defs>
<filter id="filter0_g_494_169" x="70.2645" y="4.88758e-05" width="122.084" height="81.6" filterUnits="userSpaceOnUse" color-interpolation-filters="sRGB">
<feFlood flood-opacity="0" result="BackgroundImageFix"/>
<feBlend mode="normal" in="SourceGraphic" in2="BackgroundImageFix" result="shape"/>
<feTurbulence type="fractalNoise" baseFrequency="0.41493773460388184 0.41493773460388184" numOctaves="3" seed="4240" />
<feDisplacementMap in="shape" scale="2.5999999046325684" xChannelSelector="R" yChannelSelector="G" result="displacedImage" width="100%" height="100%" />
<feMerge result="effect1_texture_494_169">
<feMergeNode in="displacedImage"/>
</feMerge>
</filter>
<filter id="filter1_g_494_169" x="4.29811" y="43.3843" width="246.98" height="238.832" filterUnits="userSpaceOnUse" color-interpolation-filters="sRGB">
<feFlood flood-opacity="0" result="BackgroundImageFix"/>
<feBlend mode="normal" in="SourceGraphic" in2="BackgroundImageFix" result="shape"/>
<feTurbulence type="fractalNoise" baseFrequency="0.38100969791412354 0.38100969791412354" numOctaves="3" seed="4240" />
<feDisplacementMap in="shape" scale="2.831524133682251" xChannelSelector="R" yChannelSelector="G" result="displacedImage" width="100%" height="100%" />
<feMerge result="effect1_texture_494_169">
<feMergeNode in="displacedImage"/>
</feMerge>
</filter>
<filter id="filter2_g_494_169" x="28.1008" y="78.9624" width="206.484" height="203.253" filterUnits="userSpaceOnUse" color-interpolation-filters="sRGB">
<feFlood flood-opacity="0" result="BackgroundImageFix"/>
<feBlend mode="normal" in="SourceGraphic" in2="BackgroundImageFix" result="shape"/>
<feTurbulence type="fractalNoise" baseFrequency="0.38100969791412354 0.38100969791412354" numOctaves="3" seed="4240" />
<feDisplacementMap in="shape" scale="2.831524133682251" xChannelSelector="R" yChannelSelector="G" result="displacedImage" width="100%" height="100%" />
<feMerge result="effect1_texture_494_169">
<feMergeNode in="displacedImage"/>
</feMerge>
</filter>
</defs>
</svg>
