<svg width="256" height="239" viewBox="0 0 256 239" fill="none" xmlns="http://www.w3.org/2000/svg">
<g filter="url(#filter0_g_478_1078)">
<path d="M77.0635 34.5748C77.0635 34.5748 57.9386 58.905 35.3849 121.9" stroke="#1A1A1A" stroke-width="42.4729" stroke-linejoin="round"/>
<path d="M60.5513 129.249C61.2156 127.66 60.188 125.873 58.4805 125.649C44.7244 123.841 31.6388 118.615 20.418 110.45L17.9521 108.655C16.3915 107.52 14.1805 108.138 13.4361 109.919L6.29582 126.998C5.12684 129.794 5.75194 133.019 7.88098 135.177L9.48776 136.805C19.3579 146.808 33.0118 152.143 47.0439 151.481C49.6686 151.358 51.9872 149.733 53.0009 147.309L60.5513 129.249Z" fill="#F6F0E5"/>
<path d="M178.499 34.5707C178.499 34.5707 197.626 58.9064 220.187 121.911" stroke="#1A1A1A" stroke-width="42.4729" stroke-linejoin="round"/>
<path d="M195.025 129.249C194.361 127.66 195.388 125.873 197.096 125.649C210.852 123.84 223.937 118.615 235.158 110.449L237.624 108.655C239.185 107.519 241.396 108.138 242.14 109.918L249.28 126.997C250.449 129.794 249.824 133.019 247.695 135.177L246.088 136.805C236.218 146.807 222.564 152.143 208.532 151.481C205.908 151.357 203.589 149.733 202.575 147.308L195.025 129.249Z" fill="#F6F0E5"/>
<path d="M31.5892 193.666L79.245 45.076L175.494 36.9939L230.85 193.286C233.297 200.195 229.02 207.663 221.822 209.049L128.999 226.916L40.6248 209.067C33.6242 207.653 29.4081 200.466 31.5892 193.666Z" fill="#1A1A1A"/>
<g filter="url(#filter1_g_478_1078)">
<ellipse cx="48.5749" cy="205.273" rx="19.0583" ry="12.8571" fill="#1A1A1A"/>
<ellipse cx="19.0583" cy="12.8571" rx="19.0583" ry="12.8571" transform="matrix(-1 0 0 1 233.168 192.416)" fill="#1A1A1A"/>
<ellipse cx="76.8904" cy="218.934" rx="19.0583" ry="12.8571" fill="#1A1A1A"/>
<ellipse cx="19.0583" cy="12.8571" rx="19.0583" ry="12.8571" transform="matrix(-1 0 0 1 204.854 206.077)" fill="#1A1A1A"/>
<ellipse cx="113.918" cy="224.559" rx="19.0583" ry="12.8571" fill="#1A1A1A"/>
<ellipse cx="19.0583" cy="12.8571" rx="19.0583" ry="12.8571" transform="matrix(-1 0 0 1 167.826 211.701)" fill="#1A1A1A"/>
</g>
<path d="M67.6352 161.442L80.7483 99.9119H176.413L188.544 161.646C190.131 169.72 183.95 177.234 175.721 177.234H80.4167C72.1027 177.234 65.9023 169.573 67.6352 161.442Z" fill="#F6F0E5"/>
<path d="M113.061 1.41577C112.674 2.53091 112.467 3.70269 112.467 4.91187C112.467 12.3663 120.301 18.4089 129.966 18.4089C139.63 18.4089 147.466 12.3663 147.466 4.91187C147.466 3.78842 147.286 2.69753 146.95 1.65405L221.945 23.8142C225.149 24.7611 226.084 28.7213 223.509 30.8494C209.88 42.108 172.982 68.8123 129.602 68.8123C86.2213 68.8123 49.323 42.108 35.6943 30.8494C33.1186 28.7213 34.0536 24.7611 37.2578 23.8142L113.061 1.41577Z" fill="#F6F0E5"/>
<path d="M186.029 90.1101C189.93 90.1101 193.355 92.7026 194.414 96.4566L195.644 100.813C197.212 106.372 193.035 111.891 187.259 111.891H74.2355C68.4591 111.891 64.2819 106.372 65.8505 100.813L67.0796 96.4566C68.1389 92.7026 71.5641 90.1101 75.4646 90.1101H186.029Z" fill="#F6F0E5"/>
</g>
<defs>
<filter id="filter0_g_478_1078" x="4.29811" y="9.41753e-06" width="246.98" height="238.832" filterUnits="userSpaceOnUse" color-interpolation-filters="sRGB">
<feFlood flood-opacity="0" result="BackgroundImageFix"/>
<feBlend mode="normal" in="SourceGraphic" in2="BackgroundImageFix" result="shape"/>
<feTurbulence type="fractalNoise" baseFrequency="0.38100969791412354 0.38100969791412354" numOctaves="3" seed="4240" />
<feDisplacementMap in="shape" scale="2.831524133682251" xChannelSelector="R" yChannelSelector="G" result="displacedImage" width="100%" height="100%" />
<feMerge result="effect1_texture_478_1078">
<feMergeNode in="displacedImage"/>
</feMerge>
</filter>
<filter id="filter1_g_478_1078" x="28.1008" y="191" width="206.483" height="47.8315" filterUnits="userSpaceOnUse" color-interpolation-filters="sRGB">
<feFlood flood-opacity="0" result="BackgroundImageFix"/>
<feBlend mode="normal" in="SourceGraphic" in2="BackgroundImageFix" result="shape"/>
<feTurbulence type="fractalNoise" baseFrequency="0.38100969791412354 0.38100969791412354" numOctaves="3" seed="4240" />
<feDisplacementMap in="shape" scale="2.831524133682251" xChannelSelector="R" yChannelSelector="G" result="displacedImage" width="100%" height="100%" />
<feMerge result="effect1_texture_478_1078">
<feMergeNode in="displacedImage"/>
</feMerge>
</filter>
</defs>
</svg>
