<svg width="256" height="263" viewBox="0 0 256 263" fill="none" xmlns="http://www.w3.org/2000/svg">
<g filter="url(#filter0_g_459_535)">
<path d="M77.0635 34.5748C77.0635 34.5748 57.9386 58.905 35.3849 121.9" stroke="#1A1A1A" stroke-width="42.4729" stroke-linejoin="round"/>
<path d="M60.5513 129.249C61.2156 127.66 60.188 125.873 58.4805 125.649C44.7244 123.841 31.6388 118.615 20.418 110.45L17.9521 108.655C16.3915 107.52 14.1805 108.138 13.4361 109.919L6.29582 126.998C5.12684 129.794 5.75194 133.019 7.88098 135.177L9.48776 136.805C19.3579 146.808 33.0118 152.143 47.0439 151.481C49.6686 151.358 51.9872 149.733 53.0009 147.309L60.5513 129.249Z" fill="#F6F0E5"/>
<path d="M178.499 34.5707C178.499 34.5707 197.626 58.9064 220.187 121.911" stroke="#1A1A1A" stroke-width="42.4729" stroke-linejoin="round"/>
<path d="M195.025 129.249C194.361 127.66 195.388 125.873 197.096 125.649C210.852 123.84 223.937 118.615 235.158 110.449L237.624 108.655C239.185 107.519 241.396 108.138 242.14 109.918L249.28 126.997C250.449 129.794 249.824 133.019 247.695 135.177L246.088 136.805C236.218 146.807 222.564 152.143 208.532 151.481C205.908 151.357 203.589 149.733 202.575 147.308L195.025 129.249Z" fill="#F6F0E5"/>
<path d="M70 45.0759H177.233C183.141 45.0759 188.167 49.3836 189.071 55.2223L219.572 252.191C220.322 257.04 216.572 261.416 211.666 261.416H46.7906C41.899 261.416 38.1527 257.065 38.8794 252.227L70 45.0759Z" fill="#1A1A1A"/>
<path d="M113.06 1.41577C112.673 2.53083 112.467 3.70278 112.467 4.91187C112.467 12.3663 120.301 18.4089 129.966 18.4089C139.63 18.4089 147.465 12.3663 147.465 4.91187C147.465 3.78844 147.286 2.69751 146.95 1.65405L222.553 23.9939C225.613 24.8985 226.652 28.6026 224.365 30.8289C211.723 43.1374 175.254 74.4158 131.102 74.4158C86.9859 74.4157 48.6078 43.1887 35.1738 30.8591C32.7756 28.658 33.7796 24.8421 36.9014 23.9197L113.06 1.41577Z" fill="#F6F0E5"/>
</g>
<defs>
<filter id="filter0_g_459_535" x="4.29811" y="9.41753e-06" width="246.98" height="262.832" filterUnits="userSpaceOnUse" color-interpolation-filters="sRGB">
<feFlood flood-opacity="0" result="BackgroundImageFix"/>
<feBlend mode="normal" in="SourceGraphic" in2="BackgroundImageFix" result="shape"/>
<feTurbulence type="fractalNoise" baseFrequency="0.38100969791412354 0.38100969791412354" numOctaves="3" seed="4240" />
<feDisplacementMap in="shape" scale="2.831524133682251" xChannelSelector="R" yChannelSelector="G" result="displacedImage" width="100%" height="100%" />
<feMerge result="effect1_texture_459_535">
<feMergeNode in="displacedImage"/>
</feMerge>
</filter>
</defs>
</svg>
