<svg width="256" height="263" viewBox="0 0 256 263" fill="none" xmlns="http://www.w3.org/2000/svg">
<g filter="url(#filter0_g_463_802)">
<path d="M77.0626 34.5748C77.0626 34.5748 57.9376 58.905 35.3839 121.9" stroke="#1A1A1A" stroke-width="42.4729" stroke-linejoin="round"/>
<path d="M60.5513 129.249C61.2156 127.66 60.188 125.873 58.4805 125.649C44.7244 123.841 31.6388 118.615 20.418 110.45L17.9521 108.655C16.3915 107.52 14.1805 108.138 13.4361 109.919L6.29582 126.998C5.12684 129.794 5.75194 133.019 7.88098 135.177L9.48776 136.805C19.3579 146.808 33.0118 152.143 47.0439 151.481C49.6686 151.358 51.9872 149.733 53.0009 147.309L60.5513 129.249Z" fill="#F6F0E5"/>
<path d="M178.5 34.5707C178.5 34.5707 197.627 58.9064 220.188 121.911" stroke="#1A1A1A" stroke-width="42.4729" stroke-linejoin="round"/>
<path d="M195.026 129.249C194.362 127.66 195.389 125.873 197.097 125.649C210.853 123.84 223.938 118.615 235.159 110.449L237.625 108.655C239.186 107.519 241.397 108.138 242.141 109.918L249.281 126.997C250.45 129.794 249.825 133.019 247.696 135.177L246.089 136.805C236.219 146.807 222.565 152.143 208.533 151.481C205.909 151.357 203.59 149.733 202.576 147.308L195.026 129.249Z" fill="#F6F0E5"/>
<path d="M70 45.0759H177.233C183.141 45.0759 188.167 49.3836 189.071 55.2223L219.572 252.191C220.322 257.04 216.572 261.416 211.666 261.416H46.7906C41.899 261.416 38.1527 257.065 38.8794 252.227L70 45.0759Z" fill="#1A1A1A"/>
<path d="M113.061 1.41577C112.674 2.53087 112.467 3.70274 112.467 4.91187C112.467 12.3663 120.302 18.4089 129.967 18.4089C139.631 18.4088 147.466 12.3662 147.466 4.91187C147.466 3.78848 147.286 2.69748 146.951 1.65405L222.553 23.9939C225.613 24.8983 226.652 28.6025 224.365 30.8289C211.723 43.1376 175.254 74.4157 131.103 74.4158C86.9865 74.4158 48.6076 43.1886 35.1738 30.8591C32.7757 28.658 33.7797 24.8422 36.9014 23.9197L113.061 1.41577Z" fill="#F6F0E5"/>
<path d="M66.5043 217.031L87.8242 120.416H173.991L192.952 217.338C194.531 225.41 188.351 232.916 180.126 232.916H79.2658C70.9132 232.916 64.7044 225.188 66.5043 217.031Z" fill="#F6F0E5"/>
<path d="M184.388 106.416C188.288 106.416 191.713 109.008 192.773 112.761L194.003 117.117C195.572 122.677 191.395 128.197 185.618 128.197H72.5129C66.7358 128.197 62.5585 122.677 64.1283 117.117L65.3582 112.761C66.4179 109.008 69.8428 106.416 73.7428 106.416H184.388Z" fill="#F6F0E5"/>
<path d="M146.776 140.416C146.776 140.416 150.994 128.916 146.776 119.258" stroke="#B2B33A" stroke-width="7" stroke-linecap="round"/>
<circle cx="144.153" cy="104.574" r="17" transform="rotate(29.4222 144.153 104.574)" fill="#CBA2ED"/>
<circle cx="144.151" cy="104.575" r="5.91313" transform="rotate(30 144.151 104.575)" fill="#F6F0E5"/>
<circle cx="17" cy="17" r="17" transform="matrix(-0.871023 0.491242 0.491242 0.871023 172.609 97.4158)" fill="#D7859C"/>
<circle cx="5.91313" cy="5.91313" r="5.91313" transform="matrix(-0.866025 0.5 0.5 0.866025 168.319 112.497)" fill="#F6F0E5"/>
<path d="M140.994 138.416H173.494" stroke="#DDDDDD" stroke-width="11" stroke-linecap="round"/>
</g>
<defs>
<filter id="filter0_g_463_802" x="4.29811" y="9.41753e-06" width="246.981" height="262.832" filterUnits="userSpaceOnUse" color-interpolation-filters="sRGB">
<feFlood flood-opacity="0" result="BackgroundImageFix"/>
<feBlend mode="normal" in="SourceGraphic" in2="BackgroundImageFix" result="shape"/>
<feTurbulence type="fractalNoise" baseFrequency="0.38100969791412354 0.38100969791412354" numOctaves="3" seed="4240" />
<feDisplacementMap in="shape" scale="2.831524133682251" xChannelSelector="R" yChannelSelector="G" result="displacedImage" width="100%" height="100%" />
<feMerge result="effect1_texture_463_802">
<feMergeNode in="displacedImage"/>
</feMerge>
</filter>
</defs>
</svg>
