<svg width="207" height="163" viewBox="0 0 207 163" fill="none" xmlns="http://www.w3.org/2000/svg">
<g filter="url(#filter0_g_514_299)">
<path d="M10.804 84.0587L27.4128 52.7097C34.7098 38.9368 42.6679 24.5314 56.4668 17.2838C75.413 7.33271 95.4678 10.5334 105.106 14.5105L71.5657 103.898L11.4494 85.6105C10.7942 85.4111 10.4834 84.6638 10.804 84.0587Z" fill="#F6F0E5" stroke="#F6F0E5" stroke-width="18.5138" stroke-linecap="round"/>
<path d="M195.398 84.0587L178.789 52.7097C171.492 38.9368 163.534 24.5314 149.735 17.2838C130.789 7.33271 110.734 10.5334 101.096 14.5105L134.636 103.898L194.753 85.6105C195.408 85.4111 195.719 84.6638 195.398 84.0587Z" fill="#F6F0E5" stroke="#F6F0E5" stroke-width="18.5138" stroke-linecap="round"/>
<path d="M29.9524 72.6729L56.681 57.5735C86.5883 40.6785 123.33 41.4418 152.509 59.5644L173.616 72.6729L185.695 121.507C190.621 141.421 175.551 160.673 155.037 160.673H48.5317C28.0176 160.673 12.9475 141.421 17.8732 121.507L29.9524 72.6729Z" fill="#AC7ED3"/>
<path d="M68.4814 159.673C68.4814 142 82.8083 127.673 100.481 127.673H104.481C122.155 127.673 136.481 142 136.481 159.673H68.4814Z" fill="#262424"/>
<path d="M84.1855 105.673H120.186V140.673H84.1855V105.673Z" fill="#262424"/>
<path d="M101.664 19.6729C133.074 19.6729 159.3 36.7918 165.521 59.5947C177.143 59.6901 186.528 67.4537 186.528 77.0176C186.528 86.641 177.026 94.4424 165.305 94.4424C163.2 94.4424 161.167 94.1893 159.247 93.7207C148.259 109.572 126.594 120.357 101.664 120.357C77.0997 120.357 55.7057 109.887 44.5713 94.416C44.1864 94.4331 43.7983 94.4424 43.4082 94.4424C31.6873 94.4422 22.1855 86.6409 22.1855 77.0176C22.1858 69.0372 28.7202 62.3095 37.6357 60.2451C43.532 37.1182 69.9567 19.673 101.664 19.6729Z" fill="#262424"/>
</g>
<g filter="url(#filter1_g_514_299)">
<path d="M125.573 14.6934C147.146 20.8611 163.448 38.5908 167.788 60.6045C143.872 61.8864 126.716 46.5447 117.129 32.8408C104.127 46.3088 78.3434 62.0133 37.1855 60.6045C39.0377 34.1191 60.7677 13.4094 87.3115 12.832L114.69 12.2363L115.008 11.6729L125.573 14.6934Z" fill="#AC7ED3"/>
</g>
<defs>
<filter id="filter0_g_514_299" x="-0.000234723" y="9.41753e-06" width="206.203" height="162.089" filterUnits="userSpaceOnUse" color-interpolation-filters="sRGB">
<feFlood flood-opacity="0" result="BackgroundImageFix"/>
<feBlend mode="normal" in="SourceGraphic" in2="BackgroundImageFix" result="shape"/>
<feTurbulence type="fractalNoise" baseFrequency="0.38100969791412354 0.38100969791412354" numOctaves="3" seed="4240" />
<feDisplacementMap in="shape" scale="2.831524133682251" xChannelSelector="R" yChannelSelector="G" result="displacedImage" width="100%" height="100%" />
<feMerge result="effect1_texture_514_299">
<feMergeNode in="displacedImage"/>
</feMerge>
</filter>
<filter id="filter1_g_514_299" x="35.7698" y="10.2571" width="133.434" height="51.8515" filterUnits="userSpaceOnUse" color-interpolation-filters="sRGB">
<feFlood flood-opacity="0" result="BackgroundImageFix"/>
<feBlend mode="normal" in="SourceGraphic" in2="BackgroundImageFix" result="shape"/>
<feTurbulence type="fractalNoise" baseFrequency="0.38100969791412354 0.38100969791412354" numOctaves="3" seed="4240" />
<feDisplacementMap in="shape" scale="2.831524133682251" xChannelSelector="R" yChannelSelector="G" result="displacedImage" width="100%" height="100%" />
<feMerge result="effect1_texture_514_299">
<feMergeNode in="displacedImage"/>
</feMerge>
</filter>
</defs>
</svg>
