<svg width="270" height="258" viewBox="0 0 270 258" fill="none" xmlns="http://www.w3.org/2000/svg">
<g filter="url(#filter0_g_514_305)">
<path d="M42.7542 84.0587L59.363 52.7097C66.66 38.9368 74.6181 24.5314 88.417 17.2838C107.363 7.33271 127.418 10.5334 137.056 14.5105L103.516 103.898L43.3996 85.6105C42.7444 85.4111 42.4336 84.6638 42.7542 84.0587Z" fill="#F6F0E5" stroke="#F6F0E5" stroke-width="18.5138" stroke-linecap="round"/>
<path d="M227.348 84.0587L210.739 52.7097C203.442 38.9368 195.484 24.5314 181.685 17.2838C162.739 7.33271 142.684 10.5334 133.046 14.5105L92.1353 103.898H166.586L226.702 85.6105C227.358 85.4111 227.668 84.6638 227.348 84.0587Z" fill="#F6F0E5" stroke="#F6F0E5" stroke-width="18.5138" stroke-linecap="round"/>
<path fill-rule="evenodd" clip-rule="evenodd" d="M130.512 34.2012L154.671 39.3281L145.414 59.2656L169.828 54.084L188.465 43.6729C185.661 68.9134 201.813 78.5765 201.322 99.6025C201.252 102.619 200.125 105.477 198.135 107.736C190.786 116.08 168.922 135.685 130.118 128.972C91.3141 135.685 69.4494 116.08 62.1008 107.736C60.1111 105.477 58.9838 102.619 58.9133 99.6025C58.655 88.5314 63.0093 80.6094 66.7825 71.9062C66.6541 68.2098 67.9271 64.498 70.4973 61.6123C71.869 56.4441 72.5464 50.6547 71.7707 43.6729L78.4983 47.4316C80.3437 41.667 84.7188 36.9872 90.4387 34.7725L105.58 28.9092L130.512 34.2012Z" fill="#AC7ED3"/>
</g>
<g filter="url(#filter1_g_514_305)">
<path d="M113.272 106.673H149.272V141.673H113.272V106.673Z" fill="#262424"/>
<path d="M97.5679 160.673C97.5679 143 111.895 128.673 129.568 128.673H133.568C151.241 128.673 165.568 143 165.568 160.673H97.5679Z" fill="#262424"/>
<path d="M130.75 20.6729C162.16 20.6729 188.386 37.7918 194.608 60.5947C206.229 60.6901 215.614 68.4537 215.615 78.0176C215.615 87.641 206.112 95.4424 194.391 95.4424C192.286 95.4424 190.253 95.1893 188.333 94.7207C177.345 110.572 155.681 121.357 130.75 121.357C106.186 121.357 84.7921 110.887 73.6577 95.416C73.2728 95.4331 72.8847 95.4424 72.4946 95.4424C60.7737 95.4422 51.272 87.6409 51.272 78.0176C51.2722 70.0372 57.8066 63.3095 66.7222 61.2451C72.6184 38.1182 99.0431 20.673 130.75 20.6729Z" fill="#262424"/>
</g>
<g filter="url(#filter2_g_514_305)">
<path d="M154.66 15.6934C176.233 21.8611 192.535 39.5908 196.875 61.6045C172.958 62.8864 155.802 47.5447 146.215 33.8408C133.214 47.3088 107.43 63.0133 66.272 61.6045C68.1241 35.1191 89.8541 14.4094 116.398 13.832L143.777 13.2363L144.094 12.6729L154.66 15.6934Z" fill="#AC7ED3"/>
</g>
<defs>
<filter id="filter0_g_514_305" x="31.95" y="9.41753e-06" width="206.202" height="131.763" filterUnits="userSpaceOnUse" color-interpolation-filters="sRGB">
<feFlood flood-opacity="0" result="BackgroundImageFix"/>
<feBlend mode="normal" in="SourceGraphic" in2="BackgroundImageFix" result="shape"/>
<feTurbulence type="fractalNoise" baseFrequency="0.38100969791412354 0.38100969791412354" numOctaves="3" seed="4240" />
<feDisplacementMap in="shape" scale="2.831524133682251" xChannelSelector="R" yChannelSelector="G" result="displacedImage" width="100%" height="100%" />
<feMerge result="effect1_texture_514_305">
<feMergeNode in="displacedImage"/>
</feMerge>
</filter>
<filter id="filter1_g_514_305" x="49.8562" y="19.2571" width="167.174" height="142.832" filterUnits="userSpaceOnUse" color-interpolation-filters="sRGB">
<feFlood flood-opacity="0" result="BackgroundImageFix"/>
<feBlend mode="normal" in="SourceGraphic" in2="BackgroundImageFix" result="shape"/>
<feTurbulence type="fractalNoise" baseFrequency="0.38100969791412354 0.38100969791412354" numOctaves="3" seed="4240" />
<feDisplacementMap in="shape" scale="2.831524133682251" xChannelSelector="R" yChannelSelector="G" result="displacedImage" width="100%" height="100%" />
<feMerge result="effect1_texture_514_305">
<feMergeNode in="displacedImage"/>
</feMerge>
</filter>
<filter id="filter2_g_514_305" x="64.8562" y="11.2571" width="133.434" height="51.8515" filterUnits="userSpaceOnUse" color-interpolation-filters="sRGB">
<feFlood flood-opacity="0" result="BackgroundImageFix"/>
<feBlend mode="normal" in="SourceGraphic" in2="BackgroundImageFix" result="shape"/>
<feTurbulence type="fractalNoise" baseFrequency="0.38100969791412354 0.38100969791412354" numOctaves="3" seed="4240" />
<feDisplacementMap in="shape" scale="2.831524133682251" xChannelSelector="R" yChannelSelector="G" result="displacedImage" width="100%" height="100%" />
<feMerge result="effect1_texture_514_305">
<feMergeNode in="displacedImage"/>
</feMerge>
</filter>
</defs>
</svg>
