<svg width="270" height="258" viewBox="0 0 270 258" fill="none" xmlns="http://www.w3.org/2000/svg">
<g filter="url(#filter0_g_514_304)">
<path d="M42.4822 84.0587L59.0911 52.7097C66.388 38.9368 74.3461 24.5314 88.145 17.2838C107.091 7.33271 127.146 10.5334 136.784 14.5105L103.244 103.898L43.1276 85.6105C42.4724 85.4111 42.1616 84.6638 42.4822 84.0587Z" fill="#F6F0E5" stroke="#F6F0E5" stroke-width="18.5138" stroke-linecap="round"/>
<path d="M227.076 84.0587L210.467 52.7097C203.17 38.9368 195.212 24.5314 181.413 17.2838C162.467 7.33271 142.412 10.5334 132.774 14.5105L91.8633 103.898H166.314L226.431 85.6105C227.086 85.4111 227.396 84.6638 227.076 84.0587Z" fill="#F6F0E5" stroke="#F6F0E5" stroke-width="18.5138" stroke-linecap="round"/>
<path d="M208.201 85.8887C214.419 88.3404 219.001 93.7373 220.413 100.271L223.077 112.594C224.035 117.025 226.47 120.999 229.982 123.865L234.469 127.526C235.15 128.082 235.785 128.674 236.374 129.297C240.75 132.144 243.891 136.628 245.017 141.835L247.681 154.158C248.638 158.589 251.072 162.564 254.585 165.43L259.072 169.091C267.387 175.875 268.865 188.014 262.422 196.596L251.451 211.209C246.195 218.211 237.542 221.795 228.874 220.561L197.021 216.023C186.313 214.499 175.419 214.883 164.845 217.158L165 217.945H161.207L161.203 217.946L161.202 217.945L109.226 217.946L105.665 217.176C95.066 214.885 84.1436 214.495 73.4082 216.023L41.5547 220.561C32.8869 221.795 24.2341 218.211 18.9775 211.209L8.00684 196.596C1.56378 188.014 3.04159 175.875 11.3564 169.091L15.8438 165.43C19.3563 162.564 21.7904 158.589 22.748 154.158L25.4121 141.835C26.5375 136.628 29.6782 132.144 34.0547 129.297C34.6435 128.674 35.2787 128.082 35.96 127.526L40.4473 123.865C43.9597 120.999 46.3939 117.025 47.3516 112.594L50.0156 100.271C51.4277 93.7372 56.0102 88.3404 62.2285 85.8887L93.2139 73.6729L133.638 82.4092L135.214 82.75L136.792 82.4092L177.216 73.6729L208.201 85.8887Z" fill="#AC7ED3"/>
</g>
<g filter="url(#filter1_g_514_304)">
<path d="M113 106.673H149V141.673H113V106.673Z" fill="#262424"/>
<path d="M97.2959 160.673C97.2959 143 111.623 128.673 129.296 128.673H133.296C150.969 128.673 165.296 143 165.296 160.673H97.2959Z" fill="#262424"/>
<path d="M130.479 20.6729C161.888 20.6729 188.114 37.7918 194.336 60.5947C205.957 60.6901 215.342 68.4537 215.343 78.0176C215.343 87.641 205.84 95.4424 194.119 95.4424C192.014 95.4424 189.981 95.1893 188.062 94.7207C177.073 110.572 155.409 121.357 130.479 121.357C105.914 121.357 84.5201 110.887 73.3857 95.416C73.0008 95.4331 72.6128 95.4424 72.2227 95.4424C60.5017 95.4422 51 87.6409 51 78.0176C51.0002 70.0372 57.5346 63.3095 66.4502 61.2451C72.3464 38.1182 98.7711 20.673 130.479 20.6729Z" fill="#262424"/>
</g>
<g filter="url(#filter2_g_514_304)">
<path d="M154.388 15.6934C175.961 21.8611 192.263 39.5908 196.603 61.6045C172.686 62.8864 155.531 47.5447 145.943 33.8408C132.942 47.3088 107.158 63.0133 66 61.6045C67.8521 35.1191 89.5821 14.4094 116.126 13.832L143.505 13.2363L143.822 12.6729L154.388 15.6934Z" fill="#AC7ED3"/>
</g>
<defs>
<filter id="filter0_g_514_304" x="2.58424" y="9.41753e-06" width="265.26" height="222.217" filterUnits="userSpaceOnUse" color-interpolation-filters="sRGB">
<feFlood flood-opacity="0" result="BackgroundImageFix"/>
<feBlend mode="normal" in="SourceGraphic" in2="BackgroundImageFix" result="shape"/>
<feTurbulence type="fractalNoise" baseFrequency="0.38100969791412354 0.38100969791412354" numOctaves="3" seed="4240" />
<feDisplacementMap in="shape" scale="2.831524133682251" xChannelSelector="R" yChannelSelector="G" result="displacedImage" width="100%" height="100%" />
<feMerge result="effect1_texture_514_304">
<feMergeNode in="displacedImage"/>
</feMerge>
</filter>
<filter id="filter1_g_514_304" x="49.5842" y="19.2571" width="167.174" height="142.832" filterUnits="userSpaceOnUse" color-interpolation-filters="sRGB">
<feFlood flood-opacity="0" result="BackgroundImageFix"/>
<feBlend mode="normal" in="SourceGraphic" in2="BackgroundImageFix" result="shape"/>
<feTurbulence type="fractalNoise" baseFrequency="0.38100969791412354 0.38100969791412354" numOctaves="3" seed="4240" />
<feDisplacementMap in="shape" scale="2.831524133682251" xChannelSelector="R" yChannelSelector="G" result="displacedImage" width="100%" height="100%" />
<feMerge result="effect1_texture_514_304">
<feMergeNode in="displacedImage"/>
</feMerge>
</filter>
<filter id="filter2_g_514_304" x="64.5842" y="11.2571" width="133.434" height="51.8515" filterUnits="userSpaceOnUse" color-interpolation-filters="sRGB">
<feFlood flood-opacity="0" result="BackgroundImageFix"/>
<feBlend mode="normal" in="SourceGraphic" in2="BackgroundImageFix" result="shape"/>
<feTurbulence type="fractalNoise" baseFrequency="0.38100969791412354 0.38100969791412354" numOctaves="3" seed="4240" />
<feDisplacementMap in="shape" scale="2.831524133682251" xChannelSelector="R" yChannelSelector="G" result="displacedImage" width="100%" height="100%" />
<feMerge result="effect1_texture_514_304">
<feMergeNode in="displacedImage"/>
</feMerge>
</filter>
</defs>
</svg>
