<svg width="254" height="201" viewBox="0 0 254 201" fill="none" xmlns="http://www.w3.org/2000/svg">
<g filter="url(#filter0_g_514_301)">
<path d="M34.5428 84.0587L51.1516 52.7097C58.4486 38.9368 66.4067 24.5314 80.2056 17.2838C99.1518 7.33271 119.207 10.5334 128.845 14.5105C138.483 10.5334 154.528 7.33271 173.474 17.2838C187.273 24.5314 195.231 38.9368 202.528 52.7097L219.137 84.0587C219.457 84.6638 219.146 85.4111 218.491 85.6105L158.375 103.898H95.3045L35.1881 85.6105C34.533 85.4111 34.2222 84.6638 34.5428 84.0587Z" fill="#F6F0E5" stroke="#F6F0E5" stroke-width="18.5138" stroke-linecap="round"/>
<path d="M149.517 51.6455C160.605 45.2443 174.782 49.0436 181.183 60.1309C185.915 68.3273 185.072 78.2106 179.832 85.3945C189.59 82.9983 200.149 87.1849 205.426 96.3242C209.52 103.414 209.441 111.767 205.954 118.543C213.97 118.538 221.769 122.696 226.065 130.137C230.346 137.552 230.063 146.349 226.09 153.278C235.153 152.029 244.484 156.244 249.34 164.655C255.742 175.743 251.943 189.92 240.856 196.321C229.768 202.722 215.59 198.924 209.189 187.837C204.908 180.422 205.19 171.624 209.163 164.695C200.1 165.944 190.77 161.729 185.914 153.318C181.82 146.228 181.898 137.874 185.385 131.099C177.369 131.103 169.571 126.946 165.275 119.506C160.543 111.31 161.386 101.425 166.625 94.2412C156.868 96.6365 146.308 92.4513 141.032 83.3125C134.631 72.2251 138.43 58.0469 149.517 51.6455ZM72.6821 60.1309C79.0835 49.0435 93.2616 45.2443 104.349 51.6455C115.436 58.0469 119.235 72.2241 112.833 83.3115C107.557 92.4508 96.9976 96.637 87.2397 94.2412C92.4795 101.425 93.3222 111.309 88.5903 119.505C84.2943 126.946 76.4962 131.103 68.48 131.099C71.9676 137.874 72.046 146.228 67.9526 153.318C63.0965 161.729 53.7652 165.944 44.7026 164.695C48.6754 171.624 48.9575 180.422 44.6763 187.837C38.2748 198.924 24.0977 202.723 13.0103 196.321C1.92291 189.92 -1.87636 175.743 4.5249 164.655C9.38089 156.245 18.7118 152.029 27.7739 153.277C23.8019 146.349 23.5203 137.552 27.8013 130.137C32.0972 122.696 39.895 118.539 47.9106 118.543C44.4237 111.767 44.3458 103.414 48.439 96.3242C53.7154 87.1852 64.2751 82.999 74.0327 85.3945C68.7932 78.2108 67.9503 68.3269 72.6821 60.1309Z" fill="#AC7ED3"/>
</g>
<g filter="url(#filter1_g_514_301)">
<path d="M106.416 106.673H142.416V141.673H106.416V106.673Z" fill="#262424"/>
<path d="M90.7114 160.673C90.7114 143 105.038 128.673 122.711 128.673H126.711C144.385 128.673 158.711 143 158.711 160.673H90.7114Z" fill="#262424"/>
<path d="M123.894 20.6729C155.304 20.6729 181.53 37.7918 187.751 60.5947C199.373 60.6901 208.758 68.4537 208.758 78.0176C208.758 87.641 199.256 95.4424 187.535 95.4424C185.43 95.4424 183.397 95.1893 181.477 94.7207C170.489 110.572 148.824 121.357 123.894 121.357C99.3297 121.357 77.9356 110.887 66.8013 95.416C66.4163 95.4331 66.0283 95.4424 65.6382 95.4424C53.9172 95.4422 44.4155 87.6409 44.4155 78.0176C44.4158 70.0372 50.9502 63.3095 59.8657 61.2451C65.7619 38.1182 92.1866 20.673 123.894 20.6729Z" fill="#262424"/>
</g>
<g filter="url(#filter2_g_514_301)">
<path d="M147.803 15.6934C169.376 21.8611 185.678 39.5908 190.018 61.6045C166.102 62.8864 148.946 47.5447 139.359 33.8408C126.357 47.3088 100.573 63.0133 59.4155 61.6045C61.2677 35.1191 82.9977 14.4094 109.542 13.832L136.92 13.2363L137.238 12.6729L147.803 15.6934Z" fill="#AC7ED3"/>
</g>
<defs>
<filter id="filter0_g_514_301" x="-0.000234723" y="9.41753e-06" width="253.866" height="200.847" filterUnits="userSpaceOnUse" color-interpolation-filters="sRGB">
<feFlood flood-opacity="0" result="BackgroundImageFix"/>
<feBlend mode="normal" in="SourceGraphic" in2="BackgroundImageFix" result="shape"/>
<feTurbulence type="fractalNoise" baseFrequency="0.38100969791412354 0.38100969791412354" numOctaves="3" seed="4240" />
<feDisplacementMap in="shape" scale="2.831524133682251" xChannelSelector="R" yChannelSelector="G" result="displacedImage" width="100%" height="100%" />
<feMerge result="effect1_texture_514_301">
<feMergeNode in="displacedImage"/>
</feMerge>
</filter>
<filter id="filter1_g_514_301" x="42.9998" y="19.2571" width="167.174" height="142.832" filterUnits="userSpaceOnUse" color-interpolation-filters="sRGB">
<feFlood flood-opacity="0" result="BackgroundImageFix"/>
<feBlend mode="normal" in="SourceGraphic" in2="BackgroundImageFix" result="shape"/>
<feTurbulence type="fractalNoise" baseFrequency="0.38100969791412354 0.38100969791412354" numOctaves="3" seed="4240" />
<feDisplacementMap in="shape" scale="2.831524133682251" xChannelSelector="R" yChannelSelector="G" result="displacedImage" width="100%" height="100%" />
<feMerge result="effect1_texture_514_301">
<feMergeNode in="displacedImage"/>
</feMerge>
</filter>
<filter id="filter2_g_514_301" x="57.9998" y="11.2571" width="133.434" height="51.8515" filterUnits="userSpaceOnUse" color-interpolation-filters="sRGB">
<feFlood flood-opacity="0" result="BackgroundImageFix"/>
<feBlend mode="normal" in="SourceGraphic" in2="BackgroundImageFix" result="shape"/>
<feTurbulence type="fractalNoise" baseFrequency="0.38100969791412354 0.38100969791412354" numOctaves="3" seed="4240" />
<feDisplacementMap in="shape" scale="2.831524133682251" xChannelSelector="R" yChannelSelector="G" result="displacedImage" width="100%" height="100%" />
<feMerge result="effect1_texture_514_301">
<feMergeNode in="displacedImage"/>
</feMerge>
</filter>
</defs>
</svg>
