<svg width="296" height="273" viewBox="0 0 296 273" fill="none" xmlns="http://www.w3.org/2000/svg">
<g filter="url(#filter0_g_498_282)">
<path d="M57.1414 84.0587L73.7502 52.7097C81.0472 38.9368 89.0053 24.5314 102.804 17.2838C121.75 7.33271 141.805 10.5334 151.444 14.5105L117.903 103.898L57.7868 85.6105C57.1316 85.4111 56.8208 84.6638 57.1414 84.0587Z" fill="#F6F0E5" stroke="#F6F0E5" stroke-width="18.5138" stroke-linecap="round"/>
<path d="M241.735 84.0587L225.126 52.7097C217.829 38.9368 209.871 24.5314 196.072 17.2838C177.126 7.33271 157.071 10.5334 147.433 14.5105L106.522 103.898H180.973L241.09 85.6105C241.745 85.4111 242.056 84.6638 241.735 84.0587Z" fill="#F6F0E5" stroke="#F6F0E5" stroke-width="18.5138" stroke-linecap="round"/>
<path d="M230.405 91.4092C235.603 93.9301 239.225 98.8303 240.265 104.747L244.596 129.396C245.269 133.223 247.033 136.673 249.672 139.321L258.032 147.711C262.85 150.322 266.193 155.04 267.185 160.684L271.516 185.332C272.189 189.16 273.953 192.61 276.592 195.259L288.953 207.664C295.235 213.969 296.112 224.264 291.071 232.523L274.98 258.886C269.439 267.963 259.197 272.899 249.443 271.19L216.532 265.426C204.682 263.35 192.355 263.817 180.297 266.788L180.464 267.83L176.31 267.831L176.309 267.83L119.438 267.831L117.089 267.206C104.512 263.863 91.603 263.256 79.2162 265.426L46.3051 271.19C36.5511 272.899 26.3086 267.963 20.7679 258.886L4.67712 232.523C-0.36437 224.264 0.51263 213.969 6.79529 207.664L19.1556 195.259C21.7946 192.61 23.5592 189.16 24.2318 185.332L28.5629 160.684C29.5547 155.04 32.8981 150.322 37.7162 147.711L46.0756 139.321C48.7144 136.673 50.4791 133.223 51.1517 129.396L55.4828 104.747C56.5225 98.8303 60.145 93.9301 65.3431 91.4092L101.917 73.6729L146.149 85.4307L147.873 85.8887L149.599 85.4307L193.83 73.6729L230.405 91.4092Z" fill="#29460A"/>
</g>
<defs>
<filter id="filter0_g_498_282" x="-0.000234723" y="9.41753e-06" width="295.748" height="272.941" filterUnits="userSpaceOnUse" color-interpolation-filters="sRGB">
<feFlood flood-opacity="0" result="BackgroundImageFix"/>
<feBlend mode="normal" in="SourceGraphic" in2="BackgroundImageFix" result="shape"/>
<feTurbulence type="fractalNoise" baseFrequency="0.38100969791412354 0.38100969791412354" numOctaves="3" seed="4240" />
<feDisplacementMap in="shape" scale="2.831524133682251" xChannelSelector="R" yChannelSelector="G" result="displacedImage" width="100%" height="100%" />
<feMerge result="effect1_texture_498_282">
<feMergeNode in="displacedImage"/>
</feMerge>
</filter>
</defs>
</svg>
