<svg width="270" height="258" viewBox="0 0 270 258" fill="none" xmlns="http://www.w3.org/2000/svg">
<g filter="url(#filter0_g_514_301)">
<path d="M42.1272 84.0587L58.7361 52.7097C66.033 38.9368 73.9911 24.5314 87.79 17.2838C106.736 7.33271 126.791 10.5334 136.429 14.5105C146.068 10.5334 162.112 7.33271 181.058 17.2838C194.857 24.5314 202.815 38.9368 210.112 52.7097L226.721 84.0587C227.042 84.6638 226.731 85.4111 226.076 85.6105L165.959 103.898H102.889L42.7726 85.6105C42.1175 85.4111 41.8066 84.6638 42.1272 84.0587Z" fill="#F6F0E5" stroke="#F6F0E5" stroke-width="18.5138" stroke-linecap="round"/>
<path d="M157.102 51.6455C168.189 45.2443 182.366 49.0436 188.768 60.1309C193.5 68.3273 192.656 78.2106 187.416 85.3945C197.174 82.9983 207.734 87.1849 213.011 96.3242C217.104 103.414 217.025 111.767 213.538 118.543C221.554 118.538 229.353 122.696 233.649 130.137C237.931 137.552 237.648 146.349 233.675 153.278C242.737 152.029 252.068 156.244 256.925 164.655C263.326 175.743 259.528 189.92 248.44 196.321C237.353 202.722 223.175 198.924 216.773 187.837C212.492 180.422 212.774 171.624 216.747 164.695C207.685 165.944 198.354 161.729 193.498 153.318C189.405 146.228 189.482 137.874 192.97 131.099C184.954 131.103 177.155 126.946 172.859 119.506C168.128 111.31 168.97 101.425 174.21 94.2412C164.452 96.6365 153.893 92.4513 148.616 83.3125C142.215 72.2251 146.014 58.0469 157.102 51.6455ZM80.2666 60.1309C86.668 49.0435 100.846 45.2443 111.934 51.6455C123.021 58.0469 126.819 72.2241 120.418 83.3115C115.141 92.4508 104.582 96.637 94.8242 94.2412C100.064 101.425 100.907 111.309 96.1748 119.505C91.8788 126.946 84.0807 131.103 76.0645 131.099C79.552 137.874 79.6305 146.228 75.5371 153.318C70.6809 161.729 61.3496 165.944 52.2871 164.695C56.2599 171.624 56.542 180.422 52.2607 187.837C45.8593 198.924 31.6822 202.723 20.5947 196.321C9.50738 189.92 5.70811 175.743 12.1094 164.655C16.9654 156.245 26.2963 152.029 35.3584 153.277C31.3864 146.349 31.1048 137.552 35.3857 130.137C39.6817 122.696 47.4794 118.539 55.4951 118.543C52.0082 111.767 51.9303 103.414 56.0234 96.3242C61.2999 87.1852 71.8596 82.999 81.6172 85.3945C76.3777 78.2108 75.5348 68.3269 80.2666 60.1309Z" fill="#AC7ED3"/>
</g>
<g filter="url(#filter1_g_514_301)">
<path d="M114 106.673H150V141.673H114V106.673Z" fill="#262424"/>
<path d="M98.2959 160.673C98.2959 143 112.623 128.673 130.296 128.673H134.296C151.969 128.673 166.296 143 166.296 160.673H98.2959Z" fill="#262424"/>
<path d="M131.479 20.6729C162.888 20.6729 189.114 37.7918 195.336 60.5947C206.957 60.6901 216.342 68.4537 216.343 78.0176C216.343 87.641 206.84 95.4424 195.119 95.4424C193.014 95.4424 190.981 95.1893 189.062 94.7207C178.073 110.572 156.409 121.357 131.479 121.357C106.914 121.357 85.5201 110.887 74.3857 95.416C74.0008 95.4331 73.6128 95.4424 73.2227 95.4424C61.5017 95.4422 52 87.6409 52 78.0176C52.0002 70.0372 58.5346 63.3095 67.4502 61.2451C73.3464 38.1182 99.7711 20.673 131.479 20.6729Z" fill="#262424"/>
</g>
<g filter="url(#filter2_g_514_301)">
<path d="M155.388 15.6934C176.961 21.8611 193.263 39.5908 197.603 61.6045C173.686 62.8864 156.531 47.5447 146.943 33.8408C133.942 47.3088 108.158 63.0133 67 61.6045C68.8521 35.1191 90.5821 14.4094 117.126 13.832L144.505 13.2363L144.822 12.6729L155.388 15.6934Z" fill="#AC7ED3"/>
</g>
<defs>
<filter id="filter0_g_514_301" x="7.58424" y="9.41753e-06" width="253.866" height="200.847" filterUnits="userSpaceOnUse" color-interpolation-filters="sRGB">
<feFlood flood-opacity="0" result="BackgroundImageFix"/>
<feBlend mode="normal" in="SourceGraphic" in2="BackgroundImageFix" result="shape"/>
<feTurbulence type="fractalNoise" baseFrequency="0.38100969791412354 0.38100969791412354" numOctaves="3" seed="4240" />
<feDisplacementMap in="shape" scale="2.831524133682251" xChannelSelector="R" yChannelSelector="G" result="displacedImage" width="100%" height="100%" />
<feMerge result="effect1_texture_514_301">
<feMergeNode in="displacedImage"/>
</feMerge>
</filter>
<filter id="filter1_g_514_301" x="50.5842" y="19.2571" width="167.174" height="142.832" filterUnits="userSpaceOnUse" color-interpolation-filters="sRGB">
<feFlood flood-opacity="0" result="BackgroundImageFix"/>
<feBlend mode="normal" in="SourceGraphic" in2="BackgroundImageFix" result="shape"/>
<feTurbulence type="fractalNoise" baseFrequency="0.38100969791412354 0.38100969791412354" numOctaves="3" seed="4240" />
<feDisplacementMap in="shape" scale="2.831524133682251" xChannelSelector="R" yChannelSelector="G" result="displacedImage" width="100%" height="100%" />
<feMerge result="effect1_texture_514_301">
<feMergeNode in="displacedImage"/>
</feMerge>
</filter>
<filter id="filter2_g_514_301" x="65.5842" y="11.2571" width="133.434" height="51.8515" filterUnits="userSpaceOnUse" color-interpolation-filters="sRGB">
<feFlood flood-opacity="0" result="BackgroundImageFix"/>
<feBlend mode="normal" in="SourceGraphic" in2="BackgroundImageFix" result="shape"/>
<feTurbulence type="fractalNoise" baseFrequency="0.38100969791412354 0.38100969791412354" numOctaves="3" seed="4240" />
<feDisplacementMap in="shape" scale="2.831524133682251" xChannelSelector="R" yChannelSelector="G" result="displacedImage" width="100%" height="100%" />
<feMerge result="effect1_texture_514_301">
<feMergeNode in="displacedImage"/>
</feMerge>
</filter>
</defs>
</svg>
