<svg width="266" height="223" viewBox="0 0 266 223" fill="none" xmlns="http://www.w3.org/2000/svg">
<g filter="url(#filter0_g_498_282)">
<path d="M41.8977 84.0587L58.5066 52.7097C65.8035 38.9368 73.7616 24.5314 87.5605 17.2838C106.507 7.33271 126.562 10.5334 136.2 14.5105L102.659 103.898L42.5431 85.6105C41.888 85.4111 41.5771 84.6638 41.8977 84.0587Z" fill="#F6F0E5" stroke="#F6F0E5" stroke-width="18.5138" stroke-linecap="round"/>
<path d="M226.491 84.0587L209.883 52.7097C202.586 38.9368 194.628 24.5314 180.829 17.2838C161.882 7.33271 141.828 10.5334 132.189 14.5105L91.2788 103.898H165.73L225.846 85.6105C226.501 85.4111 226.812 84.6638 226.491 84.0587Z" fill="#F6F0E5" stroke="#F6F0E5" stroke-width="18.5138" stroke-linecap="round"/>
<path d="M205.617 85.8887C211.835 88.3404 216.417 93.7373 217.829 100.271L220.493 112.594C221.45 117.025 223.885 120.999 227.398 123.865L231.884 127.526C232.566 128.082 233.201 128.674 233.79 129.297C238.166 132.144 241.307 136.628 242.432 141.835L245.096 154.158C246.054 158.589 248.488 162.564 252 165.43L256.488 169.091C264.803 175.875 266.28 188.014 259.837 196.596L248.867 211.209C243.61 218.211 234.957 221.795 226.29 220.561L194.437 216.023C183.729 214.499 172.834 214.883 162.26 217.158L162.416 217.945H158.623L158.619 217.946L158.618 217.945L106.641 217.946L103.081 217.176C92.4816 214.885 81.5591 214.495 70.8237 216.023L38.9702 220.561C30.3025 221.795 21.6496 218.211 16.3931 211.209L5.42236 196.596C-1.02069 188.014 0.457119 175.875 8.77197 169.091L13.2593 165.43C16.7718 162.564 19.2059 158.589 20.1636 154.158L22.8276 141.835C23.9531 136.628 27.0938 132.144 31.4702 129.297C32.0591 128.674 32.6943 128.082 33.3755 127.526L37.8628 123.865C41.3753 120.999 43.8094 117.025 44.7671 112.594L47.4312 100.271C48.8432 93.7372 53.4257 88.3404 59.644 85.8887L90.6294 73.6729L131.053 82.4092L132.629 82.75L134.208 82.4092L174.631 73.6729L205.617 85.8887Z" fill="#29460A"/>
</g>
<defs>
<filter id="filter0_g_498_282" x="-0.000234723" y="9.41753e-06" width="265.26" height="222.217" filterUnits="userSpaceOnUse" color-interpolation-filters="sRGB">
<feFlood flood-opacity="0" result="BackgroundImageFix"/>
<feBlend mode="normal" in="SourceGraphic" in2="BackgroundImageFix" result="shape"/>
<feTurbulence type="fractalNoise" baseFrequency="0.38100969791412354 0.38100969791412354" numOctaves="3" seed="4240" />
<feDisplacementMap in="shape" scale="2.831524133682251" xChannelSelector="R" yChannelSelector="G" result="displacedImage" width="100%" height="100%" />
<feMerge result="effect1_texture_498_282">
<feMergeNode in="displacedImage"/>
</feMerge>
</filter>
</defs>
</svg>
