<svg xmlns="http://www.w3.org/2000/svg" width="204" height="256" fill="none" viewBox="0 0 204 256">
  <g class="hairstyle">
    <g class="hat">
      <path fill="#F6F0E5" stroke="#F6F0E5" stroke-linecap="round" stroke-width="18.514" d="m9.389 82.643 16.609-31.35c7.297-13.772 15.255-28.177 29.054-35.425 18.946-9.951 39-6.75 48.639-2.773l-33.54 89.387-60.117-18.287a1.09 1.09 0 0 1-.645-1.552Z" class="Vector 1664"/>
      <path fill="#F6F0E5" stroke="#F6F0E5" stroke-linecap="round" stroke-width="18.514" d="m193.983 82.643-16.609-31.35c-7.297-13.772-15.255-28.177-29.054-35.425-18.946-9.951-39.001-6.75-48.639-2.773l33.54 89.387 60.117-18.287c.655-.2.966-.947.645-1.552Z" class="Vector 1665"/>
    </g>
    <path fill="#9E7EB9" d="m29.538 71.257 26.728-15.1a94 94 0 0 1 95.829 1.992l21.106 13.108 17.593 148.757c2.222 18.782-12.451 35.292-31.363 35.292H43.308c-18.913 0-33.585-16.51-31.364-35.292L29.538 71.257Z" class="hair"/>
  </g>
</svg>
