<svg xmlns="http://www.w3.org/2000/svg" width="204" height="142" fill="none" viewBox="0 0 204 142">
  <path fill="#F6F0E5" stroke="#F6F0E5" stroke-linecap="round" stroke-width="18.514" d="m9.389 82.643 16.609-31.35c7.297-13.772 15.255-28.177 29.054-35.425 18.946-9.951 39-6.75 48.639-2.773l-33.54 89.387-60.117-18.287a1.09 1.09 0 0 1-.645-1.552Z"/>
  <path fill="#F6F0E5" stroke="#F6F0E5" stroke-linecap="round" stroke-width="18.514" d="m193.983 82.643-16.609-31.35c-7.297-13.772-15.255-28.177-29.054-35.425-18.946-9.951-39.001-6.75-48.639-2.773l33.54 89.387 60.117-18.287c.655-.2.966-.947.645-1.552Z"/>
  <path fill="#9E7EB9" d="M52.27 86.257c15.188 0 27.5 12.312 27.5 27.5s-12.312 27.5-27.5 27.5c-15.187 0-27.5-12.312-27.5-27.5s12.313-27.5 27.5-27.5Zm98.001-1c15.187 0 27.5 12.312 27.5 27.5s-12.313 27.5-27.5 27.5c-15.188 0-27.5-12.312-27.5-27.5s12.312-27.5 27.5-27.5Z"/>
</svg>
