<svg width="270" height="258" viewBox="0 0 270 258" fill="none" xmlns="http://www.w3.org/2000/svg">
<g filter="url(#filter0_g_514_300)">
<path d="M42.6184 84.0587L59.2273 52.7097C66.5242 38.9368 74.4823 24.5314 88.2812 17.2838C107.227 7.33271 127.282 10.5334 136.921 14.5105L103.38 103.898L43.2638 85.6105C42.6087 85.4111 42.2978 84.6638 42.6184 84.0587Z" fill="#F6F0E5" stroke="#F6F0E5" stroke-width="18.5138" stroke-linecap="round"/>
<path d="M227.212 84.0587L210.603 52.7097C203.306 38.9368 195.348 24.5314 181.549 17.2838C162.603 7.33271 142.548 10.5334 132.91 14.5105L166.45 103.898L226.567 85.6105C227.222 85.4111 227.533 84.6638 227.212 84.0587Z" fill="#F6F0E5" stroke="#F6F0E5" stroke-width="18.5138" stroke-linecap="round"/>
<path d="M83.5 87.6729C98.6878 87.6729 111 99.985 111 115.173C111 130.361 98.6878 142.673 83.5 142.673C68.3122 142.673 56 130.361 56 115.173C56 99.985 68.3122 87.6729 83.5 87.6729ZM181.5 86.6729C196.688 86.6729 209 98.985 209 114.173C209 129.361 196.688 141.673 181.5 141.673C166.312 141.673 154 129.361 154 114.173C154 98.9851 166.312 86.673 181.5 86.6729Z" fill="#AC7ED3"/>
<path d="M116 105.673H152V140.673H116V105.673Z" fill="#262424"/>
<path d="M100.296 159.673C100.296 142 114.623 127.673 132.296 127.673H136.296C153.969 127.673 168.296 142 168.296 159.673H100.296Z" fill="#262424"/>
<path d="M133.479 19.6729C164.888 19.6729 191.114 36.7918 197.336 59.5947C208.957 59.6899 218.343 67.4535 218.343 77.0176C218.343 86.6409 208.841 94.4422 197.12 94.4424C195.015 94.4424 192.981 94.1894 191.062 93.7207C180.073 109.572 158.409 120.357 133.479 120.357C108.914 120.357 87.5201 109.887 76.3857 94.416C76.0008 94.4331 75.6128 94.4424 75.2227 94.4424C63.5017 94.4422 54 86.6409 54 77.0176C54.0002 69.0372 60.5346 62.3095 69.4502 60.2451C75.3464 37.1182 101.771 19.673 133.479 19.6729Z" fill="#262424"/>
</g>
<g filter="url(#filter1_g_514_300)">
<path d="M157.388 14.6934C178.961 20.8611 195.263 38.5908 199.603 60.6045C175.686 61.8864 158.531 46.5447 148.943 32.8408C135.942 46.3088 110.158 62.0133 69 60.6045C70.8521 34.1191 92.5821 13.4094 119.126 12.832L146.505 12.2363L146.822 11.6729L157.388 14.6934Z" fill="#AC7ED3"/>
</g>
<defs>
<filter id="filter0_g_514_300" x="31.8142" y="9.41753e-06" width="206.202" height="161.089" filterUnits="userSpaceOnUse" color-interpolation-filters="sRGB">
<feFlood flood-opacity="0" result="BackgroundImageFix"/>
<feBlend mode="normal" in="SourceGraphic" in2="BackgroundImageFix" result="shape"/>
<feTurbulence type="fractalNoise" baseFrequency="0.38100969791412354 0.38100969791412354" numOctaves="3" seed="4240" />
<feDisplacementMap in="shape" scale="2.831524133682251" xChannelSelector="R" yChannelSelector="G" result="displacedImage" width="100%" height="100%" />
<feMerge result="effect1_texture_514_300">
<feMergeNode in="displacedImage"/>
</feMerge>
</filter>
<filter id="filter1_g_514_300" x="67.5842" y="10.2571" width="133.434" height="51.8515" filterUnits="userSpaceOnUse" color-interpolation-filters="sRGB">
<feFlood flood-opacity="0" result="BackgroundImageFix"/>
<feBlend mode="normal" in="SourceGraphic" in2="BackgroundImageFix" result="shape"/>
<feTurbulence type="fractalNoise" baseFrequency="0.38100969791412354 0.38100969791412354" numOctaves="3" seed="4240" />
<feDisplacementMap in="shape" scale="2.831524133682251" xChannelSelector="R" yChannelSelector="G" result="displacedImage" width="100%" height="100%" />
<feMerge result="effect1_texture_514_300">
<feMergeNode in="displacedImage"/>
</feMerge>
</filter>
</defs>
</svg>
