<svg width="254" height="201" viewBox="0 0 254 201" fill="none" xmlns="http://www.w3.org/2000/svg">
<g filter="url(#filter0_g_498_252)">
<path d="M34.543 84.0587L51.1519 52.7097C58.4488 38.9368 66.4069 24.5314 80.2058 17.2838C99.152 7.33271 119.207 10.5334 128.845 14.5105L158.375 103.898H95.3047L35.1884 85.6105C34.5332 85.4111 34.2224 84.6638 34.543 84.0587Z" fill="#F6F0E5"/>
<path d="M219.137 84.0587L202.528 52.7097C195.231 38.9368 187.273 24.5314 173.474 17.2838C154.528 7.33271 134.473 10.5334 124.835 14.5105L158.375 103.898L218.492 85.6105C219.147 85.4111 219.458 84.6638 219.137 84.0587Z" fill="#F6F0E5"/>
<path d="M158.375 103.898L218.492 85.6105C219.147 85.4111 219.458 84.6638 219.137 84.0587L202.528 52.7097C195.231 38.9368 187.273 24.5314 173.474 17.2838C154.528 7.33271 134.473 10.5334 124.835 14.5105L158.375 103.898ZM158.375 103.898H95.3047L35.1884 85.6105C34.5332 85.4111 34.2224 84.6638 34.543 84.0587L51.1519 52.7097C58.4488 38.9368 66.4069 24.5314 80.2058 17.2838C99.152 7.33271 119.207 10.5334 128.845 14.5105L158.375 103.898Z" stroke="#F6F0E5" stroke-width="18.5138" stroke-linecap="round"/>
<path d="M149.517 51.6455C160.605 45.2443 174.782 49.0436 181.183 60.1309C185.916 68.3273 185.072 78.2107 179.832 85.3946C189.59 82.9983 200.15 87.1849 205.427 96.3242C209.52 103.414 209.441 111.767 205.954 118.543C213.97 118.538 221.769 122.696 226.065 130.137C230.347 137.552 230.063 146.349 226.091 153.278C235.153 152.029 244.484 156.244 249.341 164.655C255.742 175.743 251.943 189.92 240.856 196.321C229.769 202.722 215.591 198.924 209.189 187.837C204.908 180.422 205.19 171.624 209.163 164.695C200.101 165.944 190.77 161.729 185.914 153.318C181.821 146.228 181.898 137.874 185.386 131.099C177.37 131.103 169.571 126.946 165.275 119.506C160.543 111.31 161.386 101.425 166.626 94.2412C156.868 96.6366 146.308 92.4514 141.032 83.3125C134.631 72.2251 138.43 58.0469 149.517 51.6455ZM72.6824 60.1309C79.0838 49.0435 93.2619 45.2443 104.349 51.6455C115.437 58.047 119.235 72.2242 112.834 83.3116C107.557 92.4508 96.9978 96.637 87.24 94.2412C92.4798 101.425 93.3225 111.309 88.5906 119.505C84.2946 126.946 76.4965 131.103 68.4803 131.099C71.9678 137.875 72.0463 146.228 67.9529 153.318C63.0967 161.73 53.7654 165.944 44.7029 164.695C48.6757 171.624 48.9578 180.422 44.6766 187.837C38.2751 198.924 24.098 202.723 13.0105 196.321C1.9232 189.92 -1.87607 175.743 4.52519 164.655C9.38118 156.245 18.7121 152.029 27.7742 153.277C23.8022 146.349 23.5206 137.552 27.8016 130.137C32.0975 122.696 39.8952 118.539 47.9109 118.543C44.424 111.767 44.3461 103.414 48.4393 96.3242C53.7157 87.1852 64.2754 82.9991 74.033 85.3946C68.7935 78.2108 67.9506 68.3269 72.6824 60.1309Z" fill="#29460A"/>
</g>
<defs>
<filter id="filter0_g_498_252" x="9.41753e-06" y="9.41753e-06" width="253.866" height="200.847" filterUnits="userSpaceOnUse" color-interpolation-filters="sRGB">
<feFlood flood-opacity="0" result="BackgroundImageFix"/>
<feBlend mode="normal" in="SourceGraphic" in2="BackgroundImageFix" result="shape"/>
<feTurbulence type="fractalNoise" baseFrequency="0.38100969791412354 0.38100969791412354" numOctaves="3" seed="4240" />
<feDisplacementMap in="shape" scale="2.831524133682251" xChannelSelector="R" yChannelSelector="G" result="displacedImage" width="100%" height="100%" />
<feMerge result="effect1_texture_498_252">
<feMergeNode in="displacedImage"/>
</feMerge>
</filter>
</defs>
</svg>
