<svg width="270" height="259" viewBox="0 0 270 259" fill="none" xmlns="http://www.w3.org/2000/svg">
<g filter="url(#filter0_g_514_298)">
<path d="M42.6184 84.0587L59.2273 52.7097C66.5242 38.9368 74.4823 24.5314 88.2812 17.2838C107.227 7.33271 127.282 10.5334 136.921 14.5105L103.38 103.898L43.2638 85.6105C42.6087 85.4111 42.2978 84.6638 42.6184 84.0587Z" fill="#F6F0E5" stroke="#F6F0E5" stroke-width="18.5138" stroke-linecap="round"/>
<path d="M227.213 84.0587L210.604 52.7097C203.307 38.9368 195.349 24.5314 181.55 17.2838C162.604 7.33271 142.549 10.5334 132.91 14.5105L166.451 103.898L226.567 85.6105C227.222 85.4111 227.533 84.6638 227.213 84.0587Z" fill="#F6F0E5" stroke="#F6F0E5" stroke-width="18.5138" stroke-linecap="round"/>
<path d="M62.7672 73.1729L89.4958 58.0735C119.403 41.1785 156.144 41.9418 185.324 60.0644L206.431 73.1729L224.024 221.93C226.245 240.712 211.573 257.222 192.66 257.222H76.5377C57.6249 257.222 42.9526 240.712 45.1739 221.93L62.7672 73.1729Z" fill="#AC7ED3"/>
<path d="M116 105.673H152V140.673H116V105.673Z" fill="#262424"/>
<path d="M100 159.673C100 142 114.327 127.673 132 127.673H136C153.673 127.673 168 142 168 159.673H100Z" fill="#262424"/>
<path d="M133.479 19.6729C164.888 19.6729 191.114 36.7918 197.336 59.5947C208.957 59.6901 218.342 67.4537 218.343 77.0176C218.343 86.641 208.84 94.4424 197.119 94.4424C195.014 94.4424 192.981 94.1893 191.062 93.7207C180.073 109.572 158.409 120.357 133.479 120.357C108.914 120.357 87.5191 109.887 76.3848 94.416C76.0002 94.4331 75.6124 94.4424 75.2227 94.4424C63.5017 94.4422 54 86.6409 54 77.0176C54.0002 69.0372 60.5346 62.3095 69.4502 60.2451C75.3465 37.1181 101.771 19.6729 133.479 19.6729Z" fill="#262424"/>
</g>
<g filter="url(#filter1_g_514_298)">
<path d="M158.388 14.6934C179.961 20.8611 196.263 38.5908 200.603 60.6045C176.686 61.8864 159.531 46.5447 149.943 32.8408C136.942 46.3088 111.158 62.0133 70 60.6045C71.8521 34.1191 93.5821 13.4094 120.126 12.832L147.505 12.2363L147.822 11.6729L158.388 14.6934Z" fill="#AC7ED3"/>
</g>
<defs>
<filter id="filter0_g_514_298" x="31.8142" y="9.41753e-06" width="206.203" height="258.638" filterUnits="userSpaceOnUse" color-interpolation-filters="sRGB">
<feFlood flood-opacity="0" result="BackgroundImageFix"/>
<feBlend mode="normal" in="SourceGraphic" in2="BackgroundImageFix" result="shape"/>
<feTurbulence type="fractalNoise" baseFrequency="0.38100969791412354 0.38100969791412354" numOctaves="3" seed="4240" />
<feDisplacementMap in="shape" scale="2.831524133682251" xChannelSelector="R" yChannelSelector="G" result="displacedImage" width="100%" height="100%" />
<feMerge result="effect1_texture_514_298">
<feMergeNode in="displacedImage"/>
</feMerge>
</filter>
<filter id="filter1_g_514_298" x="68.5842" y="10.2571" width="133.434" height="51.8515" filterUnits="userSpaceOnUse" color-interpolation-filters="sRGB">
<feFlood flood-opacity="0" result="BackgroundImageFix"/>
<feBlend mode="normal" in="SourceGraphic" in2="BackgroundImageFix" result="shape"/>
<feTurbulence type="fractalNoise" baseFrequency="0.38100969791412354 0.38100969791412354" numOctaves="3" seed="4240" />
<feDisplacementMap in="shape" scale="2.831524133682251" xChannelSelector="R" yChannelSelector="G" result="displacedImage" width="100%" height="100%" />
<feMerge result="effect1_texture_514_298">
<feMergeNode in="displacedImage"/>
</feMerge>
</filter>
</defs>
</svg>
