<svg xmlns="http://www.w3.org/2000/svg" width="204" height="160" fill="none" viewBox="0 0 204 160">
  <path fill="#F6F0E5" stroke="#F6F0E5" stroke-linecap="round" stroke-width="18.514" d="m9.389 82.643 16.609-31.35c7.297-13.772 15.255-28.177 29.054-35.425 18.946-9.951 39-6.75 48.639-2.773l-33.54 89.387-60.117-18.287a1.09 1.09 0 0 1-.645-1.552Z"/>
  <path fill="#F6F0E5" stroke="#F6F0E5" stroke-linecap="round" stroke-width="18.514" d="m193.983 82.643-16.609-31.35c-7.297-13.772-15.255-28.177-29.054-35.425-18.946-9.951-39.001-6.75-48.639-2.773l33.54 89.387 60.117-18.287c.655-.2.966-.947.645-1.552Z"/>
  <path fill="#9E7EB9" d="m29.537 71.257 26.729-15.1c29.907-16.894 66.649-16.131 95.828 1.992l21.107 13.108 12.079 48.834c4.926 19.914-10.144 39.166-30.658 39.166H48.117c-20.514 0-35.584-19.252-30.659-39.166l12.08-48.834Z"/>
</svg>
