<svg width="256" height="256" viewBox="0 0 256 256" fill="none" xmlns="http://www.w3.org/2000/svg">
<g filter="url(#filter0_g_494_165)">
<path d="M149.957 19.5858V14.4366C149.957 9.11448 145.642 4.80005 140.32 4.80005C134.998 4.80005 130.684 9.11447 130.684 14.4366V39.5143L76.0285 73.096C74.3096 74.1521 75.0581 76.8 77.0755 76.8H185.54C187.586 76.8 188.312 74.0917 186.541 73.0683L134.538 43.025" stroke="#29460A" stroke-width="7"/>
</g>
<g filter="url(#filter1_g_494_165)">
<path d="M77.0645 79.9591C77.0645 79.9591 57.9396 104.289 35.3858 167.284" stroke="#1A1A1A" stroke-width="42.4729" stroke-linejoin="round"/>
<path d="M60.5513 174.633C61.2156 173.044 60.188 171.258 58.4805 171.033C44.7244 169.225 31.6388 164 20.418 155.834L17.9521 154.04C16.3915 152.904 14.1805 153.522 13.4361 155.303L6.29582 172.382C5.12683 175.178 5.75194 178.404 7.88098 180.561L9.48776 182.189C19.3579 192.192 33.0118 197.528 47.0439 196.866C49.6686 196.742 51.9872 195.118 53.0009 192.693L60.5513 174.633Z" fill="#F6F0E5"/>
<path d="M178.499 79.955C178.499 79.955 197.626 104.291 220.187 167.295" stroke="#1A1A1A" stroke-width="42.4729" stroke-linejoin="round"/>
<path d="M195.025 174.633C194.361 173.044 195.388 171.257 197.096 171.033C210.852 169.225 223.937 163.999 235.158 155.834L237.624 154.039C239.185 152.904 241.396 153.522 242.14 155.303L249.28 172.382C250.449 175.178 249.824 178.403 247.695 180.561L246.088 182.189C236.218 192.192 222.564 197.527 208.532 196.865C205.908 196.742 203.589 195.117 202.575 192.693L195.025 174.633Z" fill="#F6F0E5"/>
<path d="M38.9798 239.089L79.245 90.4603L175.494 82.3782L217.985 239.086C220.05 246.703 214.315 254.201 206.423 254.201H50.5425C42.6519 254.201 36.9165 246.705 38.9798 239.089Z" fill="#1A1A1A"/>
<path d="M67.6362 206.826L80.7493 145.296H176.414L188.545 207.03C190.132 215.105 183.951 222.619 175.722 222.619H80.4177C72.1037 222.619 65.9032 214.957 67.6362 206.826Z" fill="#F6F0E5"/>
<path d="M113.061 46.8C112.674 47.9152 112.467 49.087 112.467 50.2961C112.467 57.7506 120.301 63.7931 129.966 63.7932C139.63 63.7932 147.466 57.7506 147.466 50.2961C147.466 49.1727 147.286 48.0818 146.95 47.0383L221.945 69.1985C225.149 70.1454 226.084 74.1056 223.509 76.2336C209.88 87.4923 172.982 114.197 129.602 114.197C86.2213 114.197 49.323 87.4923 35.6943 76.2336C33.1186 74.1056 34.0536 70.1454 37.2578 69.1985L113.061 46.8Z" fill="#F6F0E5"/>
<path d="M186.029 135.494C189.93 135.494 193.355 138.087 194.414 141.841L195.644 146.197C197.212 151.756 193.035 157.275 187.259 157.275H74.2355C68.4591 157.275 64.2819 151.756 65.8505 146.197L67.0796 141.841C68.1389 138.087 71.5641 135.494 75.4646 135.494H186.029Z" fill="#F6F0E5"/>
<g filter="url(#filter2_g_494_165)">
<ellipse cx="46.3109" cy="84.3115" rx="19.0463" ry="17.4248" fill="#F6F0E5"/>
<ellipse cx="19.0463" cy="17.4248" rx="19.0463" ry="17.4248" transform="matrix(-1 0 0 1 230.787 66.8867)" fill="#F6F0E5"/>
<ellipse cx="74.6078" cy="102.825" rx="19.0463" ry="17.4248" fill="#F6F0E5"/>
<ellipse cx="19.0463" cy="17.4248" rx="19.0463" ry="17.4248" transform="matrix(-1 0 0 1 202.49 85.4006)" fill="#F6F0E5"/>
<ellipse cx="111.613" cy="110.449" rx="19.0463" ry="17.4248" fill="#F6F0E5"/>
<ellipse cx="19.0463" cy="17.4248" rx="19.0463" ry="17.4248" transform="matrix(-1 0 0 1 165.486 93.0239)" fill="#F6F0E5"/>
</g>
</g>
<defs>
<filter id="filter0_g_494_165" x="70.2654" y="4.88758e-05" width="122.084" height="81.6" filterUnits="userSpaceOnUse" color-interpolation-filters="sRGB">
<feFlood flood-opacity="0" result="BackgroundImageFix"/>
<feBlend mode="normal" in="SourceGraphic" in2="BackgroundImageFix" result="shape"/>
<feTurbulence type="fractalNoise" baseFrequency="0.41493773460388184 0.41493773460388184" numOctaves="3" seed="4240" />
<feDisplacementMap in="shape" scale="2.5999999046325684" xChannelSelector="R" yChannelSelector="G" result="displacedImage" width="100%" height="100%" />
<feMerge result="effect1_texture_494_165">
<feMergeNode in="displacedImage"/>
</feMerge>
</filter>
<filter id="filter1_g_494_165" x="4.29811" y="45.3843" width="246.98" height="210.232" filterUnits="userSpaceOnUse" color-interpolation-filters="sRGB">
<feFlood flood-opacity="0" result="BackgroundImageFix"/>
<feBlend mode="normal" in="SourceGraphic" in2="BackgroundImageFix" result="shape"/>
<feTurbulence type="fractalNoise" baseFrequency="0.38100969791412354 0.38100969791412354" numOctaves="3" seed="4240" />
<feDisplacementMap in="shape" scale="2.831524133682251" xChannelSelector="R" yChannelSelector="G" result="displacedImage" width="100%" height="100%" />
<feMerge result="effect1_texture_494_165">
<feMergeNode in="displacedImage"/>
</feMerge>
</filter>
<filter id="filter2_g_494_165" x="25.8489" y="65.471" width="206.354" height="63.8183" filterUnits="userSpaceOnUse" color-interpolation-filters="sRGB">
<feFlood flood-opacity="0" result="BackgroundImageFix"/>
<feBlend mode="normal" in="SourceGraphic" in2="BackgroundImageFix" result="shape"/>
<feTurbulence type="fractalNoise" baseFrequency="0.38100969791412354 0.38100969791412354" numOctaves="3" seed="4240" />
<feDisplacementMap in="shape" scale="2.831524133682251" xChannelSelector="R" yChannelSelector="G" result="displacedImage" width="100%" height="100%" />
<feMerge result="effect1_texture_494_165">
<feMergeNode in="displacedImage"/>
</feMerge>
</filter>
</defs>
</svg>
