<svg width="196" height="189" viewBox="0 0 196 189" fill="none" xmlns="http://www.w3.org/2000/svg">
<rect width="196" height="189" rx="41" fill="#D7C2E8"/>
<g filter="url(#filter0_g_514_313)">
<path d="M121.464 45.0254C143.039 51.1896 159.344 68.9178 163.687 90.9316C161.786 91.0334 159.929 91.0284 158.114 90.9297C158.929 96.2864 159.789 100.884 160.517 105.135C165.343 133.332 135.93 159.736 115.002 140.232C159.001 118.732 124.076 78.7324 124.076 78.7324L128.078 79.2178C123.664 75.7769 119.836 71.8782 116.613 67.9414C117.444 87.0691 96.2437 101.565 80.6299 89.4248C80.0961 89.0098 79.554 88.5784 79.002 88.1309C88.0498 84.1616 93.9503 80.3412 97.1709 75.7344C88.6056 80.9933 77.8171 85.6401 64.6309 88.3906C57.2141 101.598 49.8488 125.348 80.3086 140.232C59.3801 159.736 29.9679 133.332 34.7939 105.135C35.5176 100.907 36.3718 96.335 37.1826 91.0146C35.8066 91.0058 34.4121 90.9799 33 90.9316C34.8532 64.4459 56.5847 43.7362 83.1289 43.1592L110.555 42.5625L110.872 42L121.464 45.0254Z" fill="#1A1A1A"/>
</g>
<defs>
<filter id="filter0_g_514_313" x="31.5842" y="40.5842" width="133.518" height="107.783" filterUnits="userSpaceOnUse" color-interpolation-filters="sRGB">
<feFlood flood-opacity="0" result="BackgroundImageFix"/>
<feBlend mode="normal" in="SourceGraphic" in2="BackgroundImageFix" result="shape"/>
<feTurbulence type="fractalNoise" baseFrequency="0.38100969791412354 0.38100969791412354" numOctaves="3" seed="4240" />
<feDisplacementMap in="shape" scale="2.831524133682251" xChannelSelector="R" yChannelSelector="G" result="displacedImage" width="100%" height="100%" />
<feMerge result="effect1_texture_514_313">
<feMergeNode in="displacedImage"/>
</feMerge>
</filter>
</defs>
</svg>
